0
SECTION
2
HEADER
9
$INSUNITS
70
4
9
$ACADVER
1
AC1014
9
$HANDSEED
5
FFFF
0
ENDSEC
0
SECTION
2
TABLES
0
TABLE
2
VPORT
5
8
100
AcDbSymbolTable
0
ENDTAB
0
TABLE
2
LTYPE
5
5
100
AcDbSymbolTable
0
LTYPE
5
14
100
AcDbSymbolTableRecord
100
AcDbLinetypeTableRecord
2
BYBLOCK
70
0
0
LTYPE
5
15
100
AcDbSymbolTableRecord
100
AcDbLinetypeTableRecord
2
BYLAYER
70
0
0
ENDTAB
0
TABLE
2
LAYER
5
2
100
AcDbSymbolTable
70
2
0
LAYER
5
50
100
AcDbSymbolTableRecord
100
AcDbLayerTableRecord
2
0
70
0
6
CONTINUOUS
0
ENDTAB
0
TABLE
2
STYLE
5
3
100
AcDbSymbolTable
70
1
0
STYLE
5
11
100
AcDbSymbolTableRecord
100
AcDbTextStyleTableRecord
2
STANDARD
70
0
0
ENDTAB
0
TABLE
2
VIEW
5
6
100
AcDbSymbolTable
70
0
0
ENDTAB
0
TABLE
2
UCS
5
7
100
AcDbSymbolTable
70
0
0
ENDTAB
0
TABLE
2
APPID
5
9
100
AcDbSymbolTable
70
2
0
APPID
5
12
100
AcDbSymbolTableRecord
100
AcDbRegAppTableRecord
2
ACAD
70
0
0
ENDTAB
0
TABLE
2
DIMSTYLE
5
A
100
AcDbSymbolTable
70
1
0
ENDTAB
0
TABLE
2
BLOCK_RECORD
5
1
100
AcDbSymbolTable
70
1
0
BLOCK_RECORD
5
1F
100
AcDbSymbolTableRecord
100
AcDbBlockTableRecord
2
*MODEL_SPACE
0
BLOCK_RECORD
5
1B
100
AcDbSymbolTableRecord
100
AcDbBlockTableRecord
2
*PAPER_SPACE
0
ENDTAB
0
ENDSEC
0
SECTION
2
BLOCKS
0
BLOCK
5
20
100
AcDbEntity
100
AcDbBlockBegin
2
*MODEL_SPACE
0
ENDBLK
5
21
100
AcDbEntity
100
AcDbBlockEnd
0
BLOCK
5
1C
100
AcDbEntity
100
AcDbBlockBegin
2
*PAPER_SPACE
0
ENDBLK
5
1D
100
AcDbEntity
100
AcDbBlockEnd
0
ENDSEC
0
SECTION
2
ENTITIES
0
LWPOLYLINE
5
100
100
AcDbEntity
8
0
100
AcDbPolyline
90
8
70
1
43
0.0
10
78.724999999999994
20
2.5249999999999901
10
78.724999999999994
20
16.524999999999991
10
92.724999999999994
20
16.524999999999988
10
92.724999999999994
20
2.5249999999999884
10
78.724999999999994
20
2.5249999999999901
10
78.724999999999994
20
16.524999999999991
10
92.724999999999994
20
16.524999999999988
10
92.724999999999994
20
2.5249999999999884
0
LWPOLYLINE
5
101
100
AcDbEntity
8
0
100
AcDbPolyline
90
4
70
1
43
0.0
10
54.625
20
35.575000000000003
10
54.625
20
21.574999999999996
10
40.625
20
21.575000000000003
10
40.625
20
35.575000000000003
0
LWPOLYLINE
5
102
100
AcDbEntity
8
0
100
AcDbPolyline
90
8
70
1
43
0.0
10
2.5250000000000044
20
35.57500000000001
10
16.525000000000002
20
35.57500000000001
10
16.525000000000002
20
21.575000000000006
10
2.5250000000000021
20
21.575000000000006
10
2.5250000000000044
20
35.57500000000001
10
16.525000000000002
20
35.57500000000001
10
16.525000000000002
20
21.575000000000006
10
2.5250000000000021
20
21.575000000000006
0
LWPOLYLINE
5
103
100
AcDbEntity
8
0
100
AcDbPolyline
90
4
70
1
43
0.0
10
-50.150000000000013
20
-16.524999999999991
10
-64.150000000000006
20
-16.524999999999991
10
-64.150000000000006
20
-2.5249999999999915
10
-50.150000000000013
20
-2.5249999999999932
0
LWPOLYLINE
5
104
100
AcDbEntity
8
0
100
AcDbPolyline
90
4
70
1
43
0.0
10
26.050000000000004
20
-16.525000000000002
10
12.049999999999999
20
-16.525000000000002
10
12.050000000000001
20
-2.5250000000000012
10
26.050000000000004
20
-2.525000000000003
0
LWPOLYLINE
5
105
100
AcDbEntity
8
0
100
AcDbPolyline
90
8
70
1
43
0.0
10
78.724999999999994
20
35.575000000000003
10
92.724999999999994
20
35.574999999999996
10
92.724999999999994
20
21.574999999999992
10
78.724999999999994
20
21.574999999999996
10
78.724999999999994
20
35.575000000000003
10
92.724999999999994
20
35.574999999999996
10
92.724999999999994
20
21.574999999999992
10
78.724999999999994
20
21.574999999999996
0
LWPOLYLINE
5
106
100
AcDbEntity
8
0
100
AcDbPolyline
90
4
70
1
43
0.0
10
35.575000000000017
20
21.575000000000003
10
21.57500000000001
20
21.575000000000003
10
21.57500000000001
20
35.575000000000003
10
35.575000000000017
20
35.575000000000003
0
LWPOLYLINE
5
107
100
AcDbEntity
8
0
100
AcDbPolyline
90
4
70
1
43
0.0
10
35.57500000000001
20
16.524999999999995
10
35.57500000000001
20
2.524999999999995
10
21.575000000000006
20
2.5249999999999968
10
21.575000000000006
20
16.524999999999995
0
LWPOLYLINE
5
108
100
AcDbEntity
8
0
100
AcDbPolyline
90
8
70
1
43
0.0
10
2.5250000000000004
20
2.524999999999999
10
2.5250000000000021
20
16.524999999999999
10
16.525000000000002
20
16.524999999999995
10
16.524999999999999
20
2.5249999999999972
10
2.5250000000000004
20
2.524999999999999
10
2.5250000000000021
20
16.524999999999999
10
16.525000000000002
20
16.524999999999995
10
16.524999999999999
20
2.5249999999999972
0
LWPOLYLINE
5
109
100
AcDbEntity
8
0
100
AcDbPolyline
90
4
70
1
43
0.0
10
54.625
20
2.5249999999999928
10
40.625
20
2.5249999999999946
10
40.625
20
16.524999999999995
10
54.625
20
16.524999999999991
0
LWPOLYLINE
5
110
100
AcDbEntity
8
0
100
AcDbPolyline
90
8
70
1
43
0.0
10
73.674999999999983
20
21.574999999999996
10
59.675000000000004
20
21.574999999999996
10
59.675000000000004
20
35.575000000000003
10
73.674999999999983
20
35.575000000000003
10
73.674999999999983
20
21.574999999999996
10
59.675000000000004
20
21.574999999999996
10
59.675000000000004
20
35.575000000000003
10
73.674999999999983
20
35.575000000000003
0
LWPOLYLINE
5
111
100
AcDbEntity
8
0
100
AcDbPolyline
90
4
70
1
43
0.0
10
-26.050000000000004
20
-16.524999999999995
10
-26.050000000000004
20
-2.5249999999999959
10
-12.050000000000001
20
-2.5249999999999977
10
-12.050000000000002
20
-16.524999999999995
0
LWPOLYLINE
5
112
100
AcDbEntity
8
0
100
AcDbPolyline
90
4
70
1
43
0.0
10
-26.050000000000004
20
-2.5249999999999959
10
-12.050000000000001
20
-2.5249999999999977
10
-12.050000000000002
20
-16.524999999999995
10
-26.050000000000004
20
-16.524999999999995
0
LWPOLYLINE
5
113
100
AcDbEntity
8
0
100
AcDbPolyline
90
4
70
1
43
0.0
10
-64.150000000000006
20
-16.524999999999991
10
-64.150000000000006
20
-2.5249999999999915
10
-50.150000000000013
20
-2.5249999999999932
10
-50.150000000000013
20
-16.524999999999991
0
LWPOLYLINE
5
114
100
AcDbEntity
8
0
100
AcDbPolyline
90
8
70
1
43
0.0
10
-73.962500000000006
20
-2.5249999999999906
10
-73.962500000000006
20
-16.524999999999991
10
-87.962500000000006
20
-16.524999999999988
10
-87.962500000000006
20
-2.5249999999999888
10
-73.962500000000006
20
-2.5249999999999906
10
-73.962500000000006
20
-16.524999999999991
10
-87.962500000000006
20
-16.524999999999988
10
-87.962500000000006
20
-2.5249999999999888
0
LWPOLYLINE
5
115
100
AcDbEntity
8
0
100
AcDbPolyline
90
4
70
1
43
0.0
10
12.049999999999999
20
-16.525000000000002
10
12.050000000000001
20
-2.5250000000000012
10
26.050000000000004
20
-2.525000000000003
10
26.050000000000004
20
-16.525000000000002
0
LWPOLYLINE
5
116
100
AcDbEntity
8
0
100
AcDbPolyline
90
4
70
1
43
0.0
10
-16.524999999999995
20
16.525000000000002
10
-2.5249999999999972
20
16.524999999999999
10
-2.5249999999999995
20
2.5249999999999999
10
-16.524999999999999
20
2.5250000000000017
0
LWPOLYLINE
5
117
100
AcDbEntity
8
0
100
AcDbPolyline
90
4
70
1
43
0.0
10
-2.5249999999999995
20
2.5249999999999999
10
-16.524999999999999
20
2.5250000000000017
10
-16.524999999999995
20
16.525000000000002
10
-2.5249999999999972
20
16.524999999999999
0
LWPOLYLINE
5
118
100
AcDbEntity
8
0
100
AcDbPolyline
90
4
70
1
43
0.0
10
73.674999999999983
20
16.524999999999991
10
73.674999999999983
20
2.5249999999999906
10
59.675000000000004
20
2.5249999999999924
10
59.675000000000004
20
16.524999999999991
0
LWPOLYLINE
5
119
100
AcDbEntity
8
0
100
AcDbPolyline
90
4
70
1
43
0.0
10
59.675000000000004
20
2.5249999999999924
10
59.675000000000004
20
16.524999999999991
10
73.674999999999983
20
16.524999999999991
10
73.674999999999983
20
2.5249999999999906
0
LWPOLYLINE
5
120
100
AcDbEntity
8
0
100
AcDbPolyline
90
4
70
1
43
0.0
10
35.57500000000001
20
2.524999999999995
10
21.575000000000006
20
2.5249999999999968
10
21.575000000000006
20
16.524999999999995
10
35.57500000000001
20
16.524999999999995
0
LWPOLYLINE
5
121
100
AcDbEntity
8
0
100
AcDbPolyline
90
4
70
1
43
0.0
10
21.57500000000001
20
35.575000000000003
10
35.575000000000017
20
35.575000000000003
10
35.575000000000017
20
21.575000000000003
10
21.57500000000001
20
21.575000000000003
0
LWPOLYLINE
5
122
100
AcDbEntity
8
0
100
AcDbPolyline
90
8
70
1
43
0.0
10
-45.100000000000009
20
-16.524999999999995
10
-45.100000000000009
20
-2.5249999999999941
10
-31.100000000000001
20
-2.5249999999999955
10
-31.100000000000001
20
-16.524999999999995
10
-45.100000000000009
20
-16.524999999999995
10
-45.100000000000009
20
-2.5249999999999941
10
-31.100000000000001
20
-2.5249999999999955
10
-31.100000000000001
20
-16.524999999999995
0
LWPOLYLINE
5
123
100
AcDbEntity
8
0
100
AcDbPolyline
90
4
70
1
43
0.0
10
40.625
20
21.575000000000003
10
40.625
20
35.575000000000003
10
54.625
20
35.575000000000003
10
54.625
20
21.574999999999996
0
LWPOLYLINE
5
124
100
AcDbEntity
8
0
100
AcDbPolyline
90
4
70
1
43
0.0
10
40.625
20
2.5249999999999946
10
40.625
20
16.524999999999995
10
54.625
20
16.524999999999991
10
54.625
20
2.5249999999999928
0
LWPOLYLINE
5
125
100
AcDbEntity
8
0
100
AcDbPolyline
90
8
70
1
43
0.0
10
73.962500000000006
20
-16.525000000000006
10
73.962500000000006
20
-2.5250000000000083
10
87.962500000000006
20
-2.5250000000000101
10
87.962500000000006
20
-16.525000000000009
10
73.962500000000006
20
-16.525000000000006
10
73.962500000000006
20
-2.5250000000000083
10
87.962500000000006
20
-2.5250000000000101
10
87.962500000000006
20
-16.525000000000009
0
LWPOLYLINE
5
126
100
AcDbEntity
8
0
100
AcDbPolyline
90
4
70
1
43
0.0
10
45.100000000000009
20
-2.5250000000000057
10
45.100000000000009
20
-16.525000000000002
10
31.100000000000001
20
-16.525000000000002
10
31.100000000000001
20
-2.5250000000000035
0
LWPOLYLINE
5
127
100
AcDbEntity
8
0
100
AcDbPolyline
90
4
70
1
43
0.0
10
50.150000000000013
20
-2.5250000000000057
10
64.150000000000006
20
-2.5250000000000075
10
64.150000000000006
20
-16.525000000000006
10
50.150000000000013
20
-16.525000000000006
0
LWPOLYLINE
5
128
100
AcDbEntity
8
0
100
AcDbPolyline
90
4
70
1
43
0.0
10
64.150000000000006
20
-16.525000000000006
10
50.150000000000013
20
-16.525000000000006
10
50.150000000000013
20
-2.5250000000000057
10
64.150000000000006
20
-2.5250000000000075
0
LWPOLYLINE
5
129
100
AcDbEntity
8
0
100
AcDbPolyline
90
4
70
1
43
0.0
10
45.100000000000009
20
-16.525000000000002
10
31.100000000000001
20
-16.525000000000002
10
31.100000000000001
20
-2.5250000000000035
10
45.100000000000009
20
-2.5250000000000057
0
LWPOLYLINE
5
130
100
AcDbEntity
8
0
100
AcDbPolyline
90
24
70
1
43
0.0
10
35.575000000000003
20
-35.575000000000017
10
-35.575000000000017
20
-35.575000000000003
10
-35.575000000000017
20
-21.575000000000003
10
-13.025000000000004
20
-21.575000000000006
10
-13.025000000000004
20
-20.575000000000006
10
-6.0250000000000021
20
-20.575000000000006
10
-6.0250000000000021
20
-21.575000000000006
10
6.0249999999999986
20
-21.575000000000006
10
6.0249999999999986
20
-20.575000000000006
10
13.025
20
-20.575000000000006
10
13.025
20
-21.575000000000006
10
35.575000000000003
20
-21.57500000000001
10
35.575000000000003
20
-35.575000000000017
10
-35.575000000000017
20
-35.575000000000003
10
-35.575000000000017
20
-21.575000000000003
10
-13.025000000000004
20
-21.575000000000006
10
-13.025000000000004
20
-20.575000000000006
10
-6.0250000000000021
20
-20.575000000000006
10
-6.0250000000000021
20
-21.575000000000006
10
6.0249999999999986
20
-21.575000000000006
10
6.0249999999999986
20
-20.575000000000006
10
13.025
20
-20.575000000000006
10
13.025
20
-21.575000000000006
10
35.575000000000003
20
-21.57500000000001
0
LWPOLYLINE
5
131
100
AcDbEntity
8
0
100
AcDbPolyline
90
8
70
1
43
0.0
10
-38.243750000000006
20
-35.575000000000003
10
-52.24375000000002
20
-35.575000000000003
10
-52.24375000000002
20
-21.575000000000003
10
-51.125000000000007
20
-21.575000000000003
10
-51.125000000000007
20
-20.575000000000003
10
-44.125000000000007
20
-20.575000000000003
10
-44.125000000000007
20
-21.575000000000003
10
-38.243750000000006
20
-21.575000000000003
0
LWPOLYLINE
5
132
100
AcDbEntity
8
0
100
AcDbPolyline
90
8
70
1
43
0.0
10
-52.24375000000002
20
-35.575000000000003
10
-52.24375000000002
20
-21.575000000000003
10
-51.125000000000007
20
-21.575000000000003
10
-51.125000000000007
20
-20.575000000000003
10
-44.125000000000007
20
-20.575000000000003
10
-44.125000000000007
20
-21.575000000000003
10
-38.243750000000006
20
-21.575000000000003
10
-38.243750000000006
20
-35.575000000000003
0
LWPOLYLINE
5
133
100
AcDbEntity
8
0
100
AcDbPolyline
90
8
70
1
43
0.0
10
51.125000000000007
20
-21.57500000000001
10
52.24375000000002
20
-21.57500000000001
10
52.24375000000002
20
-35.575000000000017
10
38.243749999999991
20
-35.575000000000017
10
38.243749999999991
20
-21.57500000000001
10
44.125000000000007
20
-21.57500000000001
10
44.125000000000007
20
-20.57500000000001
10
51.125000000000007
20
-20.57500000000001
0
LWPOLYLINE
5
134
100
AcDbEntity
8
0
100
AcDbPolyline
90
8
70
1
43
0.0
10
52.24375000000002
20
-35.575000000000017
10
38.243749999999991
20
-35.575000000000017
10
38.243749999999991
20
-21.57500000000001
10
44.125000000000007
20
-21.57500000000001
10
44.125000000000007
20
-20.57500000000001
10
51.125000000000007
20
-20.57500000000001
10
51.125000000000007
20
-21.57500000000001
10
52.24375000000002
20
-21.57500000000001
0
LWPOLYLINE
5
135
100
AcDbEntity
8
0
100
AcDbPolyline
90
8
70
1
43
0.0
10
7
20
-16.524999999999999
10
-7.0000000000000036
20
-16.524999999999999
10
-7.0000000000000018
20
-2.5249999999999986
10
7.0000000000000018
20
-2.5250000000000012
10
7
20
-16.524999999999999
10
-7.0000000000000036
20
-16.524999999999999
10
-7.0000000000000018
20
-2.5249999999999986
10
7.0000000000000018
20
-2.5250000000000012
0
LWPOLYLINE
5
136
100
AcDbEntity
8
0
100
AcDbPolyline
90
4
70
1
43
0.0
10
-40.625
20
16.525000000000002
10
-40.625
20
2.5250000000000044
10
-54.625
20
2.5250000000000066
10
-54.625
20
16.525000000000006
0
LWPOLYLINE
5
137
100
AcDbEntity
8
0
100
AcDbPolyline
90
4
70
1
43
0.0
10
-59.675000000000004
20
16.525000000000006
10
-59.675000000000004
20
2.5250000000000066
10
-73.674999999999983
20
2.5250000000000088
10
-73.674999999999983
20
16.525000000000006
0
LWPOLYLINE
5
138
100
AcDbEntity
8
0
100
AcDbPolyline
90
4
70
1
43
0.0
10
-40.625
20
2.5250000000000044
10
-54.625
20
2.5250000000000066
10
-54.625
20
16.525000000000006
10
-40.625
20
16.525000000000002
0
LWPOLYLINE
5
139
100
AcDbEntity
8
0
100
AcDbPolyline
90
8
70
1
43
0.0
10
-21.575000000000006
20
16.525000000000002
10
-21.575000000000006
20
2.5250000000000021
10
-35.57500000000001
20
2.5250000000000044
10
-35.57500000000001
20
16.525000000000002
10
-21.575000000000006
20
16.525000000000002
10
-21.575000000000006
20
2.5250000000000021
10
-35.57500000000001
20
2.5250000000000044
10
-35.57500000000001
20
16.525000000000002
0
LWPOLYLINE
5
140
100
AcDbEntity
8
0
100
AcDbPolyline
90
4
70
1
43
0.0
10
-78.724999999999994
20
16.525000000000006
10
-78.724999999999994
20
2.5250000000000088
10
-92.724999999999994
20
2.525000000000011
10
-92.724999999999994
20
16.525000000000009
0
LWPOLYLINE
5
141
100
AcDbEntity
8
0
100
AcDbPolyline
90
4
70
1
43
0.0
10
-2.5249999999999972
20
21.575000000000006
10
-16.524999999999995
20
21.575000000000006
10
-16.524999999999995
20
35.57500000000001
10
-2.524999999999995
20
35.57500000000001
0
LWPOLYLINE
5
142
100
AcDbEntity
8
0
100
AcDbPolyline
90
8
70
1
43
0.0
10
-59.675000000000004
20
21.575000000000017
10
-73.674999999999983
20
21.575000000000017
10
-73.674999999999983
20
35.575000000000017
10
-59.675000000000004
20
35.575000000000017
10
-59.675000000000004
20
21.575000000000017
10
-73.674999999999983
20
21.575000000000017
10
-73.674999999999983
20
35.575000000000017
10
-59.675000000000004
20
35.575000000000017
0
LWPOLYLINE
5
143
100
AcDbEntity
8
0
100
AcDbPolyline
90
48
70
1
43
0.0
10
-82.725004743717804
20
43.549993406301112
42
-0.41421359806343266
10
-80.725004485898424
20
41.549993420411653
10
-80.725004475668314
20
40.100000044019311
42
0.41421356881956894
10
-78.725004417538514
20
38.100000058129815
10
78.724996158509185
20
38.100007557428498
42
0.41421356881956373
10
80.72499602612011
20
40.100007733836833
10
80.724995898224677
20
41.550001110229182
42
-0.41421359806343266
10
82.724995965525153
20
43.55000128663751
10
86.724995924665166
20
43.550001152036472
42
-0.41421353266601513
10
88.724995857364604
20
41.550001287588564
10
88.724995951845855
20
40.155980506859748
42
0.41421357042279067
10
90.724996142364716
20
38.155980642411869
10
93.24999168026217
20
38.155980882941492
42
-0.41421357042278872
10
95.249991870780931
20
36.15598101849362
10
95.249995715782262
20
-20.574991105868534
42
-0.41421356237311063
10
94.249995783558234
20
-21.574991173644591
10
93.724998063235745
20
-21.574991209226862
42
0.41421357042278784
10
88.724998402116029
20
-26.574991685524012
10
88.724999828629137
20
-41.5499860209151
42
-0.41421356237304818
10
86.725000019148041
20
-43.549986211433627
10
82.72500001914986
20
-43.549986592471377
42
-0.41421356237309503
10
80.724999828630985
20
-41.549986782990231
10
80.724998402121543
20
-26.574992310182544
42
0.41421356237309476
10
75.724997925824425
20
-21.574992786479701
10
61.243747356567859
20
-21.574994165955385
42
0.41421356237309453
10
56.243747832865047
20
-26.574994642252513
10
56.243748740211437
20
-36.099998126425078
42
-0.414213570377995
10
54.243748876069446
20
-38.099998316943925
10
-54.24374987632973
20
-38.100003484172589
42
-0.41421357037799172
10
-56.243749930990589
20
-36.100003484172582
10
-56.243749930990589
20
-26.574999999999992
42
0.41421356237309453
10
-61.243749930990589
20
-21.574999999999992
10
-75.725000500247234
20
-21.574999999999985
42
0.41421356237309503
10
-80.725000500247234
20
-26.574999999999996
10
-80.725000500247276
20
-41.549994472807739
42
-0.41421356237310025
10
-82.725000500247262
20
-43.549994472807747
10
-86.725000500245443
20
-43.54999447280845
42
-0.41421356237305079
10
-88.725000500246111
20
-41.549994472808066
10
-88.725000500241705
20
-26.575000137416897
42
0.41421357042279044
10
-93.725000637658582
20
-21.57500013741689
10
-94.249998357981099
20
-21.575000151845618
42
-0.41421356237310281
10
-95.24999838546448
20
-20.575000179328974
10
-95.24999994462334
20
36.155971945033286
42
-0.41421357042278417
10
-93.249999944623369
20
38.155972000000041
10
-90.725004406725972
20
38.155972000000034
42
0.41421357042279722
10
-88.725004406725958
20
40.155972054966789
10
-88.725004445038337
20
41.549992835695605
42
-0.4142135326660138
10
-86.725004702857746
20
43.549992890662345
0
LWPOLYLINE
5
144
100
AcDbEntity
8
0
100
AcDbPolyline
90
4
70
1
43
0.0
10
-78.724999999999994
20
2.5250000000000088
10
-92.724999999999994
20
2.525000000000011
10
-92.724999999999994
20
16.525000000000009
10
-78.724999999999994
20
16.525000000000006
0
LWPOLYLINE
5
145
100
AcDbEntity
8
0
100
AcDbPolyline
90
4
70
1
43
0.0
10
-59.675000000000004
20
2.5250000000000066
10
-73.674999999999983
20
2.5250000000000088
10
-73.674999999999983
20
16.525000000000006
10
-59.675000000000004
20
16.525000000000006
0
CIRCLE
5
146
100
AcDbEntity
8
0
100
AcDbCircle
10
84.72499999999998
20
-40.800000000000011
30
0
40
1.2749999999999999
210
0
220
0
230
1
0
CIRCLE
5
147
100
AcDbEntity
8
0
100
AcDbCircle
10
-84.72499999999998
20
-40.79999999999999
30
0
40
1.2749999999999999
210
0
220
0
230
1
0
LWPOLYLINE
5
148
100
AcDbEntity
8
0
100
AcDbPolyline
90
4
70
1
43
0.0
10
-16.524999999999995
20
21.575000000000006
10
-16.524999999999995
20
35.57500000000001
10
-2.524999999999995
20
35.57500000000001
10
-2.5249999999999972
20
21.575000000000006
0
LWPOLYLINE
5
149
100
AcDbEntity
8
0
100
AcDbPolyline
90
4
70
1
43
0.0
10
-40.625
20
21.57500000000001
10
-54.625
20
21.575000000000017
10
-54.625
20
35.575000000000017
10
-40.625
20
35.575000000000017
0
LWPOLYLINE
5
150
100
AcDbEntity
8
0
100
AcDbPolyline
90
8
70
1
43
0.0
10
-35.575000000000003
20
21.57500000000001
10
-35.575000000000003
20
35.575000000000017
10
-21.575000000000003
20
35.575000000000017
10
-21.575000000000003
20
21.57500000000001
10
-35.575000000000003
20
21.57500000000001
10
-35.575000000000003
20
35.575000000000017
10
-21.575000000000003
20
35.575000000000017
10
-21.575000000000003
20
21.57500000000001
0
LWPOLYLINE
5
151
100
AcDbEntity
8
0
100
AcDbPolyline
90
4
70
1
43
0.0
10
-54.625
20
21.575000000000017
10
-54.625
20
35.575000000000017
10
-40.625
20
35.575000000000017
10
-40.625
20
21.57500000000001
0
LWPOLYLINE
5
152
100
AcDbEntity
8
0
100
AcDbPolyline
90
8
70
1
43
0.0
10
-78.724999999999994
20
35.575000000000017
10
-78.724999999999994
20
21.575000000000017
10
-92.724999999999994
20
21.575000000000021
10
-92.724999999999994
20
35.575000000000024
10
-78.724999999999994
20
35.575000000000017
10
-78.724999999999994
20
21.575000000000017
10
-92.724999999999994
20
21.575000000000021
10
-92.724999999999994
20
35.575000000000024
0
CIRCLE
5
153
100
AcDbEntity
8
0
100
AcDbCircle
10
84.72499999999998
20
40.79999999999999
30
0
40
1.2749999999999999
210
0
220
0
230
1
0
CIRCLE
5
154
100
AcDbEntity
8
0
100
AcDbCircle
10
-84.72499999999998
20
40.800000000000011
30
0
40
1.2749999999999999
210
0
220
0
230
1
0
CIRCLE
5
155
100
AcDbEntity
8
0
100
AcDbCircle
10
-84.72499999999998
20
-40.79999999999999
30
0
40
1.274999999999995
210
0
220
0
230
1
0
CIRCLE
5
156
100
AcDbEntity
8
0
100
AcDbCircle
10
84.724991483770182
20
40.800008070854844
30
0
40
1.274999999999995
210
0
220
0
230
1
0
CIRCLE
5
157
100
AcDbEntity
8
0
100
AcDbCircle
10
-84.72499999999998
20
40.800000000000011
30
0
40
1.274999999999995
210
0
220
0
230
1
0
CIRCLE
5
158
100
AcDbEntity
8
0
100
AcDbCircle
10
84.724999256939725
20
-40.799991929144809
30
0
40
1.274999999999995
210
0
220
0
230
1
0
ENDSEC
0
SECTION
2
OBJECTS
0
DICTIONARY
5
C
100
AcDbDictionary
3
ACAD_GROUP
350
D
3
ACAD_MLINESTYLE
350
17
0
DICTIONARY
5
D
100
AcDbDictionary
0
DICTIONARY
5
1A
330
C
100
AcDbDictionary
0
DICTIONARY
5
17
100
AcDbDictionary
0
ENDSEC
0
EOF
